<?xml version="1.0" encoding="utf-8"?>
<!-- Generator: Adobe Illustrator 16.0.0, SVG Export Plug-In . SVG Version: 6.00 Build 0)  -->
<!DOCTYPE svg PUBLIC "-//W3C//DTD SVG 1.1//EN" "http://www.w3.org/Graphics/SVG/1.1/DTD/svg11.dtd">
<svg version="1.1" xmlns="http://www.w3.org/2000/svg" xmlns:xlink="http://www.w3.org/1999/xlink" x="0px" y="0px" width="300px"
	 height="300px" viewBox="0 0 300 300" enable-background="new 0 0 300 300" xml:space="preserve">
<g id="background" display="none">
	<rect display="inline" width="300" height="300"/>
</g>
<g id="Layer_2">
	<rect x="93.5" y="168.5" fill="none" width="108" height="57"/>
	
		<text transform="matrix(1 0 0 1 93.5 218.2998)" fill="#727171" stroke="#727171" stroke-miterlimit="10" font-family="'SourceSansPro-Regular'" font-size="60">TOP</text>
	<g>
		<g>
			<line fill="#727171" x1="67" y1="154" x2="147.5" y2="73.5"/>
			<g>
				<path fill="#727171" d="M72.303,159.304c26.833-26.834,53.667-53.667,80.5-80.5c6.845-6.845-3.762-17.452-10.607-10.606
					c-26.833,26.833-53.667,53.667-80.5,80.5C54.851,155.542,65.458,166.148,72.303,159.304L72.303,159.304z"/>
			</g>
		</g>
		<g>
			<line fill="#727171" x1="147.5" y1="73.75" x2="228" y2="154.25"/>
			<g>
				<path fill="#727171" d="M142.197,79.053c26.833,26.833,53.667,53.667,80.5,80.5c6.846,6.845,17.452-3.762,10.607-10.607
					c-26.834-26.833-53.667-53.667-80.5-80.5C145.958,61.601,135.351,72.208,142.197,79.053L142.197,79.053z"/>
			</g>
		</g>
	</g>
</g>
</svg>
